Coordinates
version=1
nRows=5
nColumns=63
inDegrees=yes

Units are S.I. units (second, meters, Newtons, ...)
If the header above contains a line with 'inDegrees', this indicates whether rotational values are in degrees (yes) or radians (no).

endheader
time	pelvis_tilt	pelvis_list	pelvis_rotation	pelvis_tx	pelvis_ty	pelvis_tz	hip_flexion_r	hip_adduction_r	hip_rotation_r	knee_angle_r	knee_angle_r_beta	ankle_angle_r	subtalar_angle_r	mtp_angle_r	hip_flexion_l	hip_adduction_l	hip_rotation_l	knee_angle_l	knee_angle_l_beta	ankle_angle_l	subtalar_angle_l	mtp_angle_l	L5_S1_Flex_Ext	L5_S1_Lat_Bending	L5_S1_axial_rotation	L4_L5_Flex_Ext	L4_L5_Lat_Bending	L4_L5_axial_rotation	L3_L4_Flex_Ext	L3_L4_Lat_Bending	L3_L4_axial_rotation	L2_L3_Flex_Ext	L2_L3_Lat_Bending	L2_L3_axial_rotation	L1_L2_Flex_Ext	L1_L2_Lat_Bending	L1_L2_axial_rotation	L1_T12_Flex_Ext	L1_T12_Lat_Bending	L1_T12_axial_rotation	Abs_r3	Abs_r2	Abs_r1	Abs_t1	Abs_t2	neck_flexion	neck_bending	neck_rotation	arm_flex_r	arm_add_r	arm_rot_r	elbow_flex_r	pro_sup_r	wrist_flex_r	wrist_dev_r	arm_flex_l	arm_add_l	arm_rot_l	elbow_flex_l	pro_sup_l	wrist_flex_l	wrist_dev_l
      2.32203390	      3.08604382	    -15.94288544	     95.36462583	      0.27542890	      0.77326421	      0.89859133	     19.16075101	      1.99793696	      5.03860937	     16.15357752	      0.28193311	     26.67443349	     -3.11675417	      0.00000000	     20.18087237	     -1.89542456	      2.75027973	     19.46692954	      0.33976202	     30.34408956	    -12.80001053	      0.00000000	      0.02963482	      0.07538647	      3.18348393	      0.05503482	      0.10026400	      3.38245167	      0.04868704	      0.18329466	      3.38245167	      0.03386963	      0.18329466	      2.78554844	      0.02751889	      0.15372808	      2.58658069	      0.01693333	      0.11677364	      2.38761295	      0.21167853	      0.85278679	     17.70558257	      0.00000000	      0.00000000	     27.30545255	      3.92408888	     11.54345547	      9.46273202	     -4.92040818	    154.15950052	      8.20387663	      5.62166655	     -7.91203722	      0.10679753	     10.60473337	     -8.85621555	     80.47028704	     25.00158922	     79.38063841	    -10.77682973	     -7.61717227
      2.33898305	      2.87736416	    -16.04564525	     95.47974797	      0.27588204	      0.77338212	      0.89874033	     19.00157690	      1.77606589	      4.87933049	     15.65289063	      0.27319448	     26.71436639	     -2.87894900	      0.00000000	     20.30935928	     -1.65486890	      2.97512897	     19.40709458	      0.33871770	     30.53892104	    -12.29358646	      0.00000000	      0.03218650	      0.04192036	      3.14243336	      0.05977356	      0.05575408	      3.33883544	      0.05287921	      0.10192516	      3.33883544	      0.03678596	      0.10192516	      2.74962919	      0.02988839	      0.08548400	      2.55322710	      0.01839137	      0.06493464	      2.35682502	      0.22990499	      0.47421149	     17.47727161	      0.00000000	      0.00000000	     27.16357063	      4.07075100	     11.03173809	      9.69330999	     -4.84765585	    155.23956171	      8.51836739	      4.75111327	     -7.86822442	     -0.42337738	     10.79448483	     -8.85434153	     80.26555542	     24.76413069	     79.79652141	     -9.91981915	     -6.92610172
      2.35593220	      2.70987802	    -16.13549556	     95.78822346	      0.27605510	      0.77344811	      0.89888277	     18.77216619	      1.60601422	      5.03717210	     15.12322330	      0.26395004	     26.45605130	     -3.49755654	      0.00000000	     20.41250530	     -1.37262382	      3.46571474	     19.31368273	      0.33708735	     30.56311988	    -12.19111540	      0.00000000	      0.03638228	      0.01365889	      3.06591240	      0.06756554	      0.01816632	      3.25753193	      0.05977246	      0.03321022	      3.25753193	      0.04158131	      0.03321022	      2.68267335	      0.03378459	      0.02785320	      2.49105383	      0.02078884	      0.02115762	      2.29943430	      0.25987502	      0.15451206	     17.05168501	      0.00000000	      0.00000000	     27.09260190	      3.96964650	     10.44832411	      9.82626446	     -4.83578557	    155.30847243	      8.72536794	      4.58571549	     -8.02438996	     -1.04993568	     10.85092152	     -8.93719799	     79.70211478	     24.69870022	     80.38392323	     -9.25551194	     -6.39660172
      2.37288136	      2.60071878	    -16.21425421	     96.29591504	      0.27576834	      0.77344803	      0.89903461	     18.53080049	      1.28478522	      3.81657857	     14.63746080	      0.25547189	     26.47427555	     -2.45439650	      0.00000000	     20.50404311	     -1.09926747	      3.92412169	     19.20309486	      0.33515723	     30.55948724	    -11.98035005	      0.00000000	      0.04096668	     -0.00547016	      2.96813647	      0.07607922	     -0.00727531	      3.15364500	      0.06730416	     -0.01330014	      3.15364500	      0.04682082	     -0.01330014	      2.59711941	      0.03804166	     -0.01115474	      2.41161088	      0.02340836	     -0.00847327	      2.22610235	      0.29262089	     -0.06187950	     16.50788460	      0.00000000	      0.00000000	     27.05130032	      3.69879591	      9.97928637	      9.69371891	     -4.72195723	    157.30165767	      8.14749533	      3.71530249	     -7.93038004	     -1.72370294	     10.79095794	     -9.11493678	     78.95906409	     24.90993521	     80.99938921	     -8.84299647	     -5.98745040
      2.38983051	      2.52184699	    -16.28651845	     96.63291905	      0.27566119	      0.77338230	      0.89912116	     18.27922075	      1.12736680	      3.36205962	     14.14192440	      0.24682314	     26.23007776	     -2.35756311	      0.00000000	     20.53221212	     -0.91857505	      4.17192592	     19.04005414	      0.33231163	     30.48760420	    -11.90747001	      0.00000000	      0.04462202	     -0.02085603	      2.90460492	      0.08286755	     -0.02773853	      3.08614272	      0.07330951	     -0.05070936	      3.08614272	      0.05099850	     -0.05070936	      2.54152930	      0.04143601	     -0.04252962	      2.35999149	      0.02549702	     -0.03230600	      2.17845369	      0.31873061	     -0.23592763	     16.15454116	      0.00000000	      0.00000000	     27.08362517	      3.35472320	      9.61795657	      9.22907961	     -4.50695887	    160.66224864	      6.61025524	      3.04221184	     -7.43690371	     -2.10376238	     10.47708305	     -9.40142337	     77.28798867	     25.29910749	     81.99449987	     -8.29972503	     -5.75337530
